<?xml version="1.0" standalone="no"?>
<!DOCTYPE svg PUBLIC "-//W3C//DTD SVG 20010904//EN"
 "http://www.w3.org/TR/2001/REC-SVG-20010904/DTD/svg10.dtd">
<svg version="1.0" xmlns="http://www.w3.org/2000/svg"
 width="260.000000pt" height="260.000000pt" viewBox="0 0 260.000000 260.000000"
 preserveAspectRatio="xMidYMid meet">
<metadata>
Created by potrace 1.11, written by Peter Selinger 2001-2013
</metadata>
<g transform="translate(0.000000,260.000000) scale(0.100000,-0.100000)"
fill="#000000" stroke="none">
<path d="M0 1300 l0 -1300 1300 0 1300 0 0 1300 0 1300 -1300 0 -1300 0 0
-1300z m2350 0 l0 -1050 -1050 0 -1050 0 0 1050 0 1050 1050 0 1050 0 0 -1050z"/>
<path d="M1185 1929 c-78 -16 -87 -18 -138 -42 -74 -35 -128 -86 -162 -153
-27 -54 -30 -68 -30 -159 0 -82 4 -109 22 -148 50 -109 151 -165 415 -231 193
-49 229 -63 255 -103 26 -40 24 -120 -5 -160 -50 -70 -197 -100 -321 -65 -74
21 -137 82 -147 140 -7 47 3 43 -139 43 -25 0 -60 0 -79 0 l-35 -1 5 -42 c21
-186 141 -303 350 -344 96 -18 236 -17 324 2 246 55 370 263 291 489 -45 129
-129 176 -454 259 -151 39 -194 56 -227 91 -44 47 -35 130 19 179 26 23 110
43 178 40 121 -4 192 -47 217 -133 l13 -46 119 0 c74 0 118 4 118 10 -1 6 -5
30 -8 55 -18 134 -130 252 -286 301 -71 22 -225 32 -295 18z"/>
</g>
</svg>
